<?xml version="1.0" encoding="UTF-8"?>
<svg id="Capa_1" data-name="Capa 1" xmlns="http://www.w3.org/2000/svg" viewBox="0 0 800 800">
  <defs>
    <style>
      .cls-1 {
        fill: #951d20;
        fill-rule: evenodd;
      }

      .cls-1, .cls-2 {
        stroke-width: 0px;
      }

      .cls-2 {
        fill: #272525;
      }
    </style>
  </defs>
  <path class="cls-2" d="M670.81,505.84v-15.7h-16.31v3.95h12.02v9.86c-1.35,1.1-3.03,2.03-5.02,2.8-1.99.78-4.12,1.17-6.38,1.17-2.41,0-4.57-.41-6.49-1.24-1.92-.83-3.55-1.98-4.91-3.45-1.35-1.47-2.4-3.21-3.13-5.23-.73-2.01-1.1-4.21-1.1-6.58,0-2.22.38-4.33,1.13-6.3.75-1.98,1.79-3.71,3.1-5.17,1.32-1.47,2.9-2.64,4.74-3.51,1.84-.86,3.85-1.3,6.04-1.3,1.39,0,2.66.11,3.81.34,1.15.23,2.2.54,3.16.93.96.39,1.85.87,2.68,1.41.83.54,1.62,1.16,2.37,1.83l2.88-3.39c-.98-.83-1.98-1.57-3.02-2.23-1.03-.66-2.14-1.21-3.33-1.66-1.18-.45-2.46-.79-3.84-1.02-1.37-.23-2.89-.34-4.54-.34-2.97,0-5.67.56-8.1,1.67-2.43,1.11-4.5,2.6-6.24,4.48-1.73,1.88-3.07,4.06-4.03,6.54-.96,2.48-1.44,5.08-1.44,7.79s.46,5.47,1.38,7.96c.92,2.48,2.26,4.64,4.01,6.49,1.75,1.84,3.86,3.29,6.32,4.34,2.46,1.05,5.26,1.58,8.38,1.58,3.35,0,6.37-.59,9.06-1.78,2.69-1.17,4.96-2.59,6.8-4.24M621.1,503.34l-24.88-31.65h-4.18v39.5h4.34v-32.39l25.5,32.39h3.56v-39.5h-4.34v31.65ZM576.02,471.69v39.5h4.46v-39.5h-4.46ZM561.58,491.49c0,2.22-.38,4.27-1.16,6.15-.77,1.88-1.86,3.53-3.27,4.94-1.41,1.41-3.13,2.51-5.16,3.3-2.03.79-4.29,1.18-6.77,1.18h-9.25v-31.26h9.25c2.48,0,4.74.4,6.77,1.21,2.03.81,3.75,1.92,5.16,3.33,1.41,1.41,2.5,3.07,3.27,4.99.77,1.92,1.16,3.97,1.16,6.15ZM566.2,491.38c0-2.78-.51-5.38-1.52-7.79-1.01-2.41-2.45-4.49-4.32-6.26-1.86-1.77-4.08-3.15-6.66-4.15-2.58-1-5.41-1.49-8.49-1.49h-13.71v39.5h13.71c3.08,0,5.91-.51,8.49-1.53,2.58-1.01,4.79-2.41,6.66-4.17,1.86-1.77,3.3-3.87,4.32-6.29,1.02-2.43,1.52-5.03,1.52-7.82ZM517.45,491.49c0,2.22-.38,4.27-1.16,6.15-.77,1.88-1.86,3.53-3.27,4.94-1.41,1.41-3.13,2.51-5.16,3.3-2.03.79-4.29,1.18-6.77,1.18h-9.25v-31.26h9.25c2.48,0,4.74.4,6.77,1.21,2.03.81,3.75,1.92,5.16,3.33,1.41,1.41,2.5,3.07,3.27,4.99.77,1.92,1.16,3.97,1.16,6.15ZM522.08,491.38c0-2.78-.51-5.38-1.52-7.79-1.01-2.41-2.45-4.49-4.32-6.26-1.86-1.77-4.08-3.15-6.66-4.15-2.58-1-5.41-1.49-8.49-1.49h-13.71v39.5h13.71c3.08,0,5.91-.51,8.49-1.53,2.58-1.01,4.79-2.41,6.66-4.17,1.86-1.77,3.3-3.87,4.32-6.29,1.02-2.43,1.52-5.03,1.52-7.82ZM478.13,471.69h-28.55v39.5h28.83v-4.06h-24.37v-13.82h21.55v-4.06h-21.55v-13.48h24.09v-4.06ZM400.21,504.58l-11.28-32.89h-4.85l14.11,39.78h3.72l10.89-32.05,10.83,32.05h3.78l14.11-39.78h-4.68l-11.28,32.89-10.83-33.01h-3.67l-10.83,33.01ZM378.71,499.5v-.11c0-1.73-.27-3.22-.82-4.46-.54-1.24-1.36-2.32-2.43-3.24-1.07-.92-2.4-1.71-3.96-2.37-1.56-.66-3.35-1.25-5.35-1.78-1.69-.45-3.09-.85-4.21-1.19-1.11-.34-1.98-.69-2.63-1.07-.64-.38-1.08-.8-1.33-1.27-.24-.47-.37-1.02-.37-1.66v-.11c0-.98.42-1.8,1.27-2.46.85-.66,2.11-.99,3.81-.99s3.39.35,5.08,1.04c1.69.7,3.42,1.65,5.19,2.85l4.51-6.55c-2.03-1.62-4.26-2.86-6.69-3.72-2.43-.87-5.09-1.3-7.98-1.3-2.03,0-3.89.28-5.58.85-1.68.56-3.14,1.37-4.35,2.43-1.21,1.05-2.15,2.3-2.83,3.75-.67,1.45-1.01,3.07-1.01,4.88v.11c0,1.96.31,3.59.93,4.91.62,1.32,1.51,2.42,2.63,3.3,1.13.88,2.51,1.63,4.13,2.23,1.63.6,3.43,1.15,5.44,1.64,1.66.41,3.01.81,4.04,1.18,1.03.38,1.84.75,2.44,1.13.58.38.98.78,1.18,1.21.21.43.31.93.31,1.49v.11c0,1.17-.5,2.08-1.5,2.74-1,.66-2.4.99-4.2.99-2.26,0-4.34-.43-6.24-1.3-1.9-.87-3.75-2.03-5.56-3.5l-5.13,6.15c2.37,2.14,5,3.73,7.9,4.77,2.9,1.03,5.85,1.55,8.86,1.55,2.14,0,4.1-.27,5.86-.82,1.76-.54,3.28-1.33,4.55-2.37,1.27-1.03,2.26-2.31,2.97-3.84.7-1.52,1.06-3.26,1.06-5.22ZM340.69,511.18v-39.5h-9.37l-10.38,16.7-10.38-16.7h-9.37v39.5h8.58v-25.62l11,16.7h.23l11.11-16.87v25.79h8.58ZM279.3,494.65h-10.49l5.25-12.81,5.25,12.81ZM295.1,511.18l-16.93-39.78h-8.01l-16.93,39.78h8.86l3.61-8.86h16.7l3.61,8.86h9.08ZM248.83,511.18v-7.73h-21.44v-8.29h18.62v-7.73h-18.62v-8.01h21.16v-7.73h-29.73v39.5h30.02ZM202.17,485.29c0,1.69-.57,3.05-1.72,4.06-1.15,1.01-2.79,1.52-4.94,1.52h-8.8v-11.34h8.63c2.15,0,3.82.47,5.02,1.41,1.2.94,1.8,2.35,1.8,4.23v.11ZM212.15,511.18l-9.65-14.11c2.52-.94,4.56-2.42,6.12-4.43,1.56-2.01,2.34-4.62,2.34-7.82v-.11c0-4.1-1.31-7.3-3.92-9.59-2.61-2.29-6.27-3.44-10.97-3.44h-18.05v39.5h8.69v-12.64h6.83l8.46,12.64h10.16ZM161.2,491.55c0,1.77-.29,3.37-.87,4.8-.58,1.43-1.39,2.67-2.43,3.72-1.03,1.05-2.29,1.86-3.75,2.43-1.47.56-3.08.85-4.85.85h-6.71v-23.81h6.71c1.77,0,3.38.29,4.85.87,1.47.58,2.72,1.4,3.75,2.46,1.03,1.05,1.84,2.31,2.43,3.78.58,1.47.87,3.07.87,4.8v.11ZM170.29,491.44v-.11c0-2.78-.51-5.37-1.52-7.76-1.02-2.39-2.45-4.47-4.32-6.23-1.86-1.77-4.08-3.15-6.66-4.15-2.58-1-5.41-1.49-8.49-1.49h-15.4v39.5h15.4c3.08,0,5.91-.51,8.49-1.53,2.58-1.01,4.8-2.41,6.66-4.17,1.86-1.77,3.3-3.86,4.32-6.26,1.02-2.41,1.52-5,1.52-7.79Z"/>
  <path class="cls-1" d="M605.07,263.16c7.4,0,13.41,6,13.41,13.41s-6,13.41-13.41,13.41-13.41-6-13.41-13.41,6-13.41,13.41-13.41"/>
  <path class="cls-1" d="M701.13,329.41h.01c.16,0,.32,0,.48-.01,1.03-.09,3.39-.71,3.39-4.44v-19.1c0-2.9-2.42-5.24-5.31-5.07-8.09.47-14.96,2.92-20.61,7.34-6.85,5.36-15.87,16.83-15.87,38.12v-39.86c0-1.88-1.52-3.41-3.41-3.41h-20.46c-1.88,0-3.41,1.53-3.41,3.41v111.2c0,1.88,1.53,3.41,3.41,3.41h20.46c1.88,0,3.41-1.53,3.41-3.41v-41.52c0-7.74.97-14.56,2.91-20.45,1.94-5.89,4.69-10.76,8.27-14.64,3.58-3.87,7.82-6.78,12.74-8.71,4.27-1.69,8.94-2.64,14.01-2.86h0Z"/>
  <path class="cls-1" d="M509.85,358.86h-32.54c-2.48,0-4.15-2.54-3.17-4.82l18.66-43.18c-5.27-28.93-16.16-26.21-16.16-26.21l-57.45,131.5c-1,2.28.67,4.83,3.16,4.83h21.49c1.39,0,2.64-.83,3.18-2.11l14.09-33.54c.54-1.28,1.79-2.11,3.18-2.11h55.62c1.77,0,2.97-1.79,2.29-3.42l-7.22-17.5c-.86-2.08-2.88-3.43-5.13-3.43"/>
  <path class="cls-1" d="M578.13,416.16l-61.39-140.51c-3.77-8.68-10.45-12.57-19.67-12.22h-11.15l-.03.07h-18.27c11.65,2.45,18.45,8.11,26.64,22.29h0c8.44,19.3,16.79,38.5,25.2,58.01h0l.23.54c1.39,3.23,2.78,6.45,4.18,9.71.1.23.15.46.2.7l17.03,40.47,10.09,23.68c.54,1.27,1.79,2.1,3.17,2.1h20.61c2.49,0,4.16-2.55,3.16-4.83"/>
  <path class="cls-1" d="M298.67,348.11h-.09l.08.02s0-.01,0-.02"/>
  <path class="cls-1" d="M381.38,339.91c-2.38-7.74-5.92-14.52-10.61-20.33-4.69-5.81-10.57-10.42-17.65-13.85-7.07-3.42-15.3-5.14-24.68-5.14-8.49,0-16.23,1.64-23.23,4.91-7,3.28-13.07,7.71-18.2,13.29-5.14,5.59-9.12,12.1-11.95,19.55-1.33,3.5-2.35,7.12-3.05,10.84-3.13,19.29,2.09,43.42,16.34,57.5,5.43,5.36,11.84,9.53,19.21,12.51,7.37,2.98,15.3,4.47,23.79,4.47,10.87,0,20.22-2.01,28.03-6.03,6.21-3.19,11.74-7.24,16.59-12.13,2.05-2.07,1.95-5.45-.24-7.38l-8.59-7.62c-1.87-1.66-4.71-1.74-6.61-.11-3.73,3.2-7.5,5.73-11.32,7.58-4.91,2.38-10.72,3.57-17.42,3.57-8.79,0-16.23-2.57-22.33-7.71-4.75-3.99-8.13-9.38-10.17-16.12h-.02c-1.89-5.52-2.42-11.16-2.33-16.13,0-.06,0-.11,0-.17,0-7.1,1.65-13.32,1.65-13.32,0,0,4.63-32.4,29.45-32.4s29.47,32.51,29.47,32.51c0,0,1.11,5.54-4.06,5.54h-34.08c-7.8,0-13.67,6.36-12.9,14.12.05.56.12,1.13.2,1.7.16,1.17,1.14,2.05,2.32,2.05h71.86c2.12,0,3.87-1.65,4-3.77v-.03c.08-1.19.12-2.38.12-3.57,0-8.49-1.19-16.61-3.57-24.35"/>
  <path class="cls-1" d="M127.29,396.78h.16c1.11-.09,2.26-.15,3.46-.15-1.25,0-2.45.06-3.62.15"/>
  <path class="cls-1" d="M258.15,363.78c-1.45-4.1-3.58-7.64-6.33-10.62-2.72-2.98-6-5.55-9.76-7.71-3.8-2.12-7.97-4.02-12.55-5.66,2.79-1.49,5.59-3.28,8.3-5.4,2.72-2.09,5.11-4.51,7.12-7.26,1.97-2.76,3.61-6,4.84-9.72,1.27-3.76,1.9-8,1.9-12.77,0-12.41-4.62-22.16-13.82-29.32-9.24-7.19-21.72-10.76-37.47-10.76h-43.95c5.29,4.69,8.18,12.79,8.59,24.36h31.97c8.94,0,15.72,1.75,20.41,5.29,4.66,3.5,7,8.49,7,14.94,0,7.34-2.68,12.78-8.01,16.28-5.37,3.54-12.48,5.29-21.38,5.29h-37.44v-34.58c-.06-18.9-6.15-29.3-18.03-31.52-.23-.04-.46-.06-.69-.06h-8.51s-.03,0-.03,0h-19.15c11.21,2.36,18.6,10.47,19.15,20.98v99.6c0,2.45,1.99,4.44,4.44,4.44h18.39c2.45,0,4.44-1.99,4.44-4.44v-31.4h43.47c10.84,0,18.89,1.86,24.17,5.59,5.26,3.72,7.9,8.94,7.9,15.65,0,7.15-2.68,12.55-8.01,16.2-5.37,3.65-12.7,5.47-22.09,5.47h-72.1l-3.46.15c-24.9,1.91-27.74,24.22-27.74,24.22h102.9c8.6,0,16.5-.93,23.65-2.79,7.11-1.86,13.22-4.62,18.29-8.23,5.06-3.65,8.94-8.16,11.7-13.52,2.76-5.36,4.14-11.51,4.14-18.52,0-5.36-.75-10.09-2.24-14.15"/>
  <path class="cls-1" d="M427.37,324.06v-29.18c-.06-18.86-6.14-29.24-18-31.45-.22-.04-.46-.06-.69-.06h-8.49s-.03,0-.03,0h-19.1c11.18,2.36,18.56,10.45,19.1,20.93v64.41l-.06.02v71.04c0,.68.55,1.22,1.22,1.22.48,0,.92-.29,1.12-.73l24.92-57.05v-39.15Z"/>
  <path class="cls-1" d="M618.53,368.78v-34.5c-.06-18.86-6.14-29.24-18-31.45-.22-.04-.46-.06-.69-.06h-8.49s-.03,0-.03,0h-19.1c11.18,2.35,18.56,10.45,19.1,20.93v69.74l-.06.02v22.1c0,3,2.44,5.44,5.44,5.44h16.39c3,0,5.44-2.43,5.44-5.44v-46.77h0Z"/>
  <path class="cls-1" d="M402.4,347.35h-.09l.08.02s0-.01,0-.02"/>
  <path class="cls-1" d="M400.54,396.11h.16c1.12-.09,2.26-.15,3.47-.15-1.25,0-2.46.06-3.63.15"/>
  <path class="cls-2" d="M659.58,449H140.4c-11.67,0-22.28,4.78-29.97,12.47-7.69,7.69-12.47,18.3-12.47,29.97s4.78,22.28,12.47,29.97c7.69,7.69,18.3,12.47,29.97,12.47h519.18c11.67,0,22.28-4.78,29.97-12.47,7.69-7.69,12.47-18.3,12.47-29.97s-4.78-22.28-12.47-29.97c-7.69-7.69-18.3-12.47-29.97-12.47M140.4,446.03h519.18c12.49,0,23.84,5.11,32.07,13.34,8.23,8.23,13.34,19.58,13.34,32.07s-5.11,23.84-13.34,32.07c-8.23,8.23-19.58,13.34-32.07,13.34H140.4c-12.49,0-23.84-5.11-32.07-13.34-8.23-8.23-13.34-19.58-13.34-32.07s5.11-23.84,13.34-32.07c8.23-8.23,19.58-13.34,32.07-13.34Z"/>
</svg>