<?xml version="1.0" encoding="UTF-8"?>
<svg id="Capa_1" data-name="Capa 1" xmlns="http://www.w3.org/2000/svg" viewBox="0 0 800 800">
  <defs>
    <style>
      .cls-1 {
        fill: #951d20;
        fill-rule: evenodd;
        stroke-width: 0px;
      }
    </style>
  </defs>
  <path class="cls-1" d="M216.14,588.26l.56-.02c3.88-.3,7.86-.51,12.06-.51-4.35,0-8.54.21-12.62.53"/>
  <path class="cls-1" d="M672.2,473.23c-5.06-14.29-12.46-26.62-22.07-37-9.48-10.39-20.9-19.34-34.01-26.87-13.25-7.4-27.79-14.03-43.76-19.74,9.74-5.19,19.47-11.43,28.94-18.82,9.49-7.27,17.8-15.71,24.81-25.32,6.88-9.61,12.59-20.9,16.87-33.89,4.42-13.11,6.63-27.9,6.63-44.52,0-43.24-16.09-77.25-48.16-102.18-32.21-25.06-75.69-37.52-130.61-37.52h-153.19c18.44,16.36,28.49,44.57,29.95,84.9h111.42c31.15,0,54.79,6.09,71.15,18.44,16.23,12.2,24.41,29.6,24.41,52.06,0,25.58-9.35,44.53-27.91,56.73-18.7,12.33-43.49,18.43-74.52,18.43h-130.48v-120.51c-.22-65.88-21.43-102.13-62.85-109.85-.79-.15-1.6-.21-2.4-.21h-29.66s-.12,0-.12,0h-66.73c39.06,8.23,64.81,36.48,66.73,73.11v347.13c0,8.54,6.92,15.46,15.46,15.46h64.1c8.54,0,15.46-6.92,15.46-15.46v-109.44h151.51c37.77,0,65.83,6.5,84.25,19.48,18.32,12.98,27.53,31.15,27.53,54.53,0,24.93-9.34,43.75-27.91,56.47-18.7,12.72-44.28,19.08-76.99,19.08h-251.3l-12.06.51c-86.77,6.66-96.7,84.4-96.7,84.4h358.63c29.98,0,57.51-3.24,82.44-9.73,24.79-6.49,46.09-16.1,63.75-28.7,17.65-12.72,31.16-28.43,40.76-47.13,9.61-18.69,14.42-40.11,14.42-64.53,0-18.69-2.6-35.17-7.8-49.33"/>
</svg>