<svg version="1.1" xmlns="http://www.w3.org/2000/svg" xmlns:xlink="http://www.w3.org/1999/xlink" x="0px" y="0px" style="enable-background:new 0 0 4252 2501.2;" xml:space="preserve" viewBox="621.1 437.07 3010.8 1618.03"> <style type="text/css"> 	.st0{fill:#FFFFFF;} </style> <g id="logo"> 	<g> 		<path class="st0" d="M1902.3,1145.8c-0.5,0-0.9,0-1.4-0.1c-4.1-0.7-7.2-4.2-7.2-8.4c-1.4-171.9,92.5-286.7,117.8-314.5 			c-105-99.5-247.1-104-248.6-104.1c-4.2-0.1-7.7-3.2-8.3-7.3c-0.6-4.1,1.8-8.1,5.8-9.4c163-54.4,301.2-0.6,335.5,14.8 			c62.1-130.4,22.6-267.2,22.2-268.6c-1.2-4,0.7-8.3,4.4-10.2c3.7-1.9,8.3-0.8,10.8,2.6c102.1,138.2,93.7,286.3,89.5,323.6 			c143.2,18.8,261.1-61.1,262.3-61.9c3.4-2.4,8.1-1.9,11,1.1c2.9,3,3.3,7.6,0.9,11C2397,854.3,2253.5,892,2216.8,899.6 			c26.4,142,138.8,229.4,139.9,230.3c3.3,2.5,4.3,7.1,2.4,10.8c-1.9,3.7-6.2,5.5-10.2,4.2c-163.9-51.8-244.1-176.6-262.7-209.2 			c-126.9,69-175.3,202.9-175.8,204.3C1909.2,1143.5,1905.9,1145.8,1902.3,1145.8z"></path> 		<path class="st0" d="M660.3,1429.3v283.5h-39.2v-283.5H660.3z M807.5,1712.7v-283.5H975c26,0,48.7,8,63.8,23.6 			c11.8,11.8,18.9,28.3,18.9,47.7c0,12.3-3.3,23.6-9,33.1c-5.2,8.5-11.8,15.1-20.3,20.8v2.4c13.2,5.7,24.1,14.6,31.7,25.5 			c9.4,13.2,14.6,28.8,14.6,46.3c0,23.6-9.9,44.4-26,59.1c-17,15.6-41.1,25-66.1,25H807.5z M1006.7,1473.2c-8-7.1-19.8-11.8-35-11.8 			H846.7v82.7h132.6c11.8,0,22.2-5.2,29.3-13.2c6.6-7.6,10.4-17.5,10.4-28.3C1019,1491.2,1014.7,1480.8,1006.7,1473.2z 			 M1024.6,1593.7c-9.9-11.8-25-18-41.6-18H846.7v104.9h134.5c17,0,31.7-5.7,41.1-15.6c9-9,14.2-21.7,14.2-36.8 			C1036.4,1614,1032.2,1602.2,1024.6,1593.7z M1201,1429.3h239.9v33.1h-200.6v84.1H1421l-9.4,33.1h-171.5v100.1h207.3v33.1H1201 			V1429.3z M1719.9,1429.3c33.1,0,59.5,10.4,78.4,29.3c15.6,16.5,24.6,39.2,24.6,68c0,24.6-9.4,47.7-26,65.2 			c-10.4,10.9-24.6,20.3-40.6,25.5l60,95.4h-43.5l-53.9-89.3h-109v89.3h-39.2v-283.5H1719.9z M1769,1481.7 			c-10.9-12.3-27.4-19.4-49.1-19.4h-110v128h109c19.4,0,36.4-6.1,47.7-18c10.9-10.9,17-26.5,17-46.3 			C1783.7,1508.2,1779,1492.6,1769,1481.7z M1972.4,1463.8c25-25.5,67.5-39.7,113.3-39.7c43,0,85,12.8,110,36.4 			c26.9,25,42.1,62.4,42.1,110.5c0,43-11.8,77-33.5,102c-25,29.3-69.4,44.9-118.5,44.9c-44.9,0-87.8-13.7-112.9-38.7 			c-25.5-25-39.2-61.9-39.2-108.2C1933.7,1525.7,1947.4,1488.8,1972.4,1463.8z M2169.4,1484.6c-18.4-18-50.5-27.4-83.6-27.4 			c-33.5,0-66.1,9.4-84,28.3c-18.9,18.9-28.8,47.7-28.8,85.5c0,35.4,8.5,62.8,25.5,82.2c18,20.8,51.9,31.7,87.4,31.7 			c35.9,0,69.4-10.9,87.8-32.1c16.1-19.4,25-46.8,25-81.7C2198.7,1533.2,2188.3,1503.9,2169.4,1484.6z M2674.6,1429.3h280.5v33.1 			h-120.9v250.4h-39.2v-250.4h-120.4V1429.3z M3156,1429.3l128.5,283.5h-41.6l-25-55.3h-172.2l-25,55.3h-40.2l128.5-283.5H3156z 			 M3060.3,1624.4h142.9l-69.9-158.7h-3.1L3060.3,1624.4z M3528.9,1429.3c33.1,0,59.5,10.4,78.4,29.3c15.6,16.5,24.6,39.2,24.6,68 			c0,24.6-9.4,47.7-26,65.2c-10.4,10.9-24.6,20.3-40.6,25.5l60,95.4h-43.5l-53.9-89.3h-109v89.3h-39.2v-283.5H3528.9z M3578,1481.7 			c-10.9-12.3-27.4-19.4-49.1-19.4h-110v128h109c19.4,0,36.4-6.1,47.7-18c10.9-10.9,17-26.5,17-46.3 			C3592.6,1508.2,3587.9,1492.6,3578,1481.7z M2369.7,1449.1c23.1-17.5,59.5-25,106.8-25c42.5,0,71.3,5.7,107.2,19.8v32.9 			c-36.1-12.7-71.8-19.2-106.3-19.2c-35.4,0-63.3,4.7-78.9,15.1c-10.4,6.6-15.6,15.1-15.6,26.9c0,10.4,3.8,18.4,11.8,23.6 			c9.5,7.1,24.1,10.9,43,13.7l67.1,10.9c37.3,6.1,64.7,13.7,81.7,29.8c12.8,12.8,19.4,28.8,19.4,52.4c0,27.4-11.3,48.7-34,63.3 			c-25,16.1-60,24.6-111,24.6c-42.5,0-75.9-7.6-113.2-20.8l0.4-33.4c35,12.5,80.2,20.2,111.8,20.2c35.9,0,65.7-3.8,86-16.5 			c13.2-8,20.8-20.3,20.8-38.3c0-32.6-29.8-38.7-66.6-44.4l-73.2-11.3c-26.5-3.8-46.3-10.9-60.5-21.7 			c-14.2-10.9-22.7-26.9-22.7-48.2C2343.7,1479.4,2353.1,1461.4,2369.7,1449.1z"></path> 		<g> 			<path class="st0" d="M752.8,2052.7v-125.4h67.3c11.5,0,21.5,3.6,28.2,10.5c5.2,5.2,8.4,12.5,8.4,21.1c0,5.4-1.5,10.5-4,14.6 				c-2.3,3.8-5.2,6.7-9,9.2v1c5.9,2.5,10.7,6.5,14,11.3c4.2,5.9,6.5,12.7,6.5,20.5c0,10.5-4.4,19.6-11.5,26.1 				c-7.5,6.9-18.2,11.1-29.3,11.1H752.8z M834.1,1946.7c-3.6-3.1-8.8-5.2-15.5-5.2h-48.5v36.6h51.8c5.2,0,9.8-2.3,13-5.9 				c2.9-3.3,4.6-7.7,4.6-12.5C839.5,1954.7,837.6,1950.1,834.1,1946.7z M842,2000c-4.4-5.2-11.1-7.9-18.4-7.9h-53.5v46.4h52.7 				c7.5,0,14-2.5,18.2-6.9c4-4,6.3-9.6,6.3-16.3C847.2,2009,845.3,2003.8,842,2000z"></path> 			<path class="st0" d="M913.3,1927.3h99.3v14.6h-81.9v37.2h73.1v14.6h-73.1v44.3h84.9v14.6H913.3V1927.3z"></path> 			<path class="st0" d="M1138.5,1927.3l56.8,125.4h-18.4l-11.1-24.5h-78.2l-11.1,24.5h-17.8l56.8-125.4H1138.5z M1094.2,2013.6h65.2 				l-30.9-70.2h-3.3L1094.2,2013.6z"></path> 			<path class="st0" d="M1249.9,1940.3c12.7-10,29.7-15.3,50-15.3c15.9,0,31.6,3.1,43.3,9l-5.6,12.7c-10.9-4.4-23.8-7.1-37.2-7.1 				c-16.3,0-29.9,4.6-39.1,12.5c-10.4,8.8-16.1,22.2-16.1,37.8c0,14,4.6,25.9,13.2,34.5c9.4,10,24.7,15.9,42,15.9 				c14,0,26.3-2.7,37.2-7.1l5.6,12.5c-11.5,5.9-27.4,9.2-43.3,9.2c-22.4,0-41-6.5-53.9-18.6c-11.5-11.1-18.2-26.8-18.2-46.4 				C1227.7,1968.1,1235.9,1951.1,1249.9,1940.3z"></path> 			<path class="st0" d="M1501.8,1927.3v125.4h-17.1v-59.8h-78v59.8h-17.3v-125.4h17.3v51h78v-51H1501.8z"></path> 			<path class="st0" d="M1653.4,1927.3v14.6h-79v39.7h70.4v14.6h-70.4v56.4H1557v-125.4H1653.4z"></path> 			<path class="st0" d="M1761.4,1927.3c14.6,0,26.3,4.6,34.7,13c6.9,7.3,10.9,17.3,10.9,30.1c0,10.9-4.2,21.1-11.5,28.8 				c-4.6,4.8-10.9,9-18,11.3l26.5,42.2h-19.2l-23.8-39.5h-44.1v39.5h-17.3v-125.4H1761.4z M1783.1,1950.5 				c-4.8-5.4-12.1-8.6-21.7-8.6h-44.5v56.6h44.1c8.6,0,16.1-2.7,21.1-7.9c4.8-4.8,7.5-11.7,7.5-20.5 				C1789.6,1962.2,1787.5,1955.3,1783.1,1950.5z"></path> 			<path class="st0" d="M1868,1942.6c11.1-11.3,27.2-17.6,47.4-17.6c19,0,34.9,5.6,46,16.1c11.9,11.1,18.6,27.6,18.6,48.9 				c0,19-5.2,34.1-14.8,45.1c-11.1,13-28,19.9-49.7,19.9c-19.9,0-36.2-6.1-47.2-17.1c-11.3-11.1-17.3-27.4-17.3-47.9 				C1850.8,1969.9,1856.9,1953.6,1868,1942.6z M1949.7,1951.8c-8.2-7.9-19.6-12.1-34.3-12.1c-14.8,0-26.5,4.2-34.5,12.5 				c-8.4,8.4-12.7,21.1-12.7,37.8c0,15.7,3.8,27.8,11.3,36.4c7.9,9.2,20.3,14,35.9,14c15.9,0,28-4.8,36.2-14.2 				c7.1-8.6,11.1-20.7,11.1-36.2C1962.7,1973.3,1958.1,1960.3,1949.7,1951.8z"></path> 			<path class="st0" d="M2144.5,1927.3v125.4h-17.3l-80.9-100.5v100.5h-16.7v-125.4h17.1l81.1,100.1v-100.1H2144.5z"></path> 			<path class="st0" d="M2189.8,1927.3H2311v14.6h-52v110.8h-17.3v-110.8h-51.8V1927.3z"></path> 			<path class="st0" d="M2501,1927.3c14.6,0,26.3,4.6,34.7,13c6.9,7.3,10.9,17.3,10.9,30.1c0,10.9-4.2,21.1-11.5,28.8 				c-4.6,4.8-10.9,9-18,11.3l26.5,42.2h-19.2l-23.8-39.5h-44.1v39.5h-17.3v-125.4H2501z M2522.8,1950.5c-4.8-5.4-12.1-8.6-21.7-8.6 				h-44.5v56.6h44.1c8.6,0,16.1-2.7,21.1-7.9c4.8-4.8,7.5-11.7,7.5-20.5C2529.2,1962.2,2527.1,1955.3,2522.8,1950.5z"></path> 			<path class="st0" d="M2596.2,1927.3h99.3v14.6h-81.9v37.2h73.1v14.6h-73.1v44.3h84.9v14.6h-102.2V1927.3z"></path> 			<path class="st0" d="M2754,1936.1c10.2-7.7,26.3-11.1,47.2-11.1c18.8,0,31.6,2.5,47.4,8.8l-5,13c-14-4.6-26.8-6.9-42-6.9 				c-15.7,0-28,2.1-34.9,6.7c-4.6,2.9-6.9,6.7-6.9,11.9c0,4.6,1.7,8.2,5.2,10.4c4.2,3.1,10.7,4.8,19,6.1l29.7,4.8 				c16.5,2.7,28.6,6.1,36.2,13.2c5.6,5.6,8.6,12.7,8.6,23.2c0,12.1-5,21.5-15,28c-11.1,7.1-26.5,10.9-49.1,10.9 				c-18.8,0-34.9-2.9-51.4-8.8l4.6-13.4c14.8,4.8,32.4,7.1,46.4,7.1c15.9,0,29.1-1.7,38-7.3c5.9-3.6,9.2-9,9.2-16.9 				c0-14.4-13.2-17.1-29.5-19.6l-32.4-5c-11.7-1.7-20.5-4.8-26.8-9.6c-6.3-4.8-10-11.9-10-21.3 				C2742.5,1949.5,2746.6,1941.5,2754,1936.1z"></path> 			<path class="st0" d="M2918.6,1942.6c11.1-11.3,27.2-17.6,47.4-17.6c19,0,34.9,5.6,46,16.1c11.9,11.1,18.6,27.6,18.6,48.9 				c0,19-5.2,34.1-14.8,45.1c-11.1,13-28,19.9-49.7,19.9c-19.9,0-36.2-6.1-47.2-17.1c-11.3-11.1-17.3-27.4-17.3-47.9 				C2901.4,1969.9,2907.5,1953.6,2918.6,1942.6z M3000.3,1951.8c-8.2-7.9-19.6-12.1-34.3-12.1c-14.8,0-26.5,4.2-34.5,12.5 				c-8.4,8.4-12.7,21.1-12.7,37.8c0,15.7,3.8,27.8,11.3,36.4c7.9,9.2,20.3,14,35.9,14c15.9,0,28-4.8,36.2-14.2 				c7.1-8.6,11.1-20.7,11.1-36.2C3013.3,1973.3,3008.7,1960.3,3000.3,1951.8z"></path> 			<path class="st0" d="M3142,1927.3c14.6,0,26.3,4.6,34.7,13c6.9,7.3,10.9,17.3,10.9,30.1c0,10.9-4.2,21.1-11.5,28.8 				c-4.6,4.8-10.9,9-18,11.3l26.5,42.2h-19.2l-23.8-39.5h-44.1v39.5h-17.3v-125.4H3142z M3163.8,1950.5c-4.8-5.4-12.1-8.6-21.7-8.6 				h-44.5v56.6h44.1c8.6,0,16.1-2.7,21.1-7.9c4.8-4.8,7.5-11.7,7.5-20.5C3170.2,1962.2,3168.2,1955.3,3163.8,1950.5z"></path> 			<path class="st0" d="M3227,1927.3h121.2v14.6h-52v110.8h-17.3v-110.8H3227V1927.3z"></path> 			<path class="st0" d="M3400.6,1936.1c10.2-7.7,26.3-11.1,47.2-11.1c18.8,0,31.6,2.5,47.4,8.8l-5,13c-14-4.6-26.8-6.9-42-6.9 				c-15.7,0-28,2.1-34.9,6.7c-4.6,2.9-6.9,6.7-6.9,11.9c0,4.6,1.7,8.2,5.2,10.4c4.2,3.1,10.7,4.8,19,6.1l29.7,4.8 				c16.5,2.7,28.6,6.1,36.2,13.2c5.6,5.6,8.6,12.7,8.6,23.2c0,12.1-5,21.5-15,28c-11.1,7.1-26.5,10.9-49.1,10.9 				c-18.8,0-34.9-2.9-51.4-8.8l4.6-13.4c14.8,4.8,32.4,7.1,46.4,7.1c15.9,0,29.1-1.7,38-7.3c5.9-3.6,9.2-9,9.2-16.9 				c0-14.4-13.2-17.1-29.5-19.6l-32.4-5c-11.7-1.7-20.5-4.8-26.8-9.6c-6.3-4.8-10-11.9-10-21.3 				C3389.1,1949.5,3393.3,1941.5,3400.6,1936.1z"></path> 		</g> 	</g> </g> <g id="guias"> 	<g> 	</g> </g> </svg>
