<svg xmlns="http://www.w3.org/2000/svg" viewBox="0 0 288.13 80"><defs><style>.cls-1{fill:#274c69;}</style></defs><g id="Capa_2" data-name="Capa 2"><g id="Capa_1-2" data-name="Capa 1"><polygon class="cls-1" points="124.27 11.61 127.95 5.57 120.15 0 124.27 11.61"/><path class="cls-1" d="M148.17,14.44c18,1.13,34,4.54,46.42,9.3h0c-9.76-6.44-26.09-11.1-45.38-12.65Zm-72.31,9.3h0c12.45-4.79,28.61-8.21,46.64-9.32l-1.17-3.34c-19.25,1.53-35.56,6.2-45.48,12.66M124,10.88l1.18,3.4q4.89-.24,10-.24,5.25,0,10.34.25l1.05-3.39c-3.7-.24-7.51-.36-11.39-.36s-7.51.12-11.13.34"/><polygon class="cls-1" points="142.56 5.6 146.23 11.84 150.37 0.03 142.56 5.6"/><rect class="cls-1" x="133.57" y="0.69" width="3.25" height="3.25" transform="translate(37.85 96.17) rotate(-44.94)"/><rect class="cls-1" x="130.35" y="3.96" width="3.25" height="3.25" transform="translate(34.68 94.93) rotate(-44.98)"/><rect class="cls-1" x="136.9" y="3.96" width="3.25" height="3.25" transform="translate(36.69 99.67) rotate(-45.04)"/><path class="cls-1" d="M282.17,47.49a6,6,0,1,1,6-6A6,6,0,0,1,282.17,47.49Zm0-11.08a5.12,5.12,0,1,0,5.12,5.12A5.13,5.13,0,0,0,282.17,36.41Zm2.56,5.19a2.13,2.13,0,0,1-.87.33l1.62,2.57h-1L282.86,42h-2.51V44.5h-.91V38.19h3.85a2.3,2.3,0,0,1,1.3.26,1.92,1.92,0,0,1,.91,1.62A2,2,0,0,1,284.73,41.6Zm-.57-2.39a1.77,1.77,0,0,0-1-.16h-2.79v2.06h2.94a1.47,1.47,0,0,0,.9-.18,1.08,1.08,0,0,0,.42-.89A.94.94,0,0,0,284.16,39.21Z"/><path class="cls-1" d="M12.09,35.36a8.1,8.1,0,0,1,2.3.33,5.75,5.75,0,0,1,2,1.05,5.32,5.32,0,0,1,1.4,1.79,5.79,5.79,0,0,1,.54,2.59,5.43,5.43,0,0,1-.19,1.53,5.09,5.09,0,0,1-.46,1.18,6.08,6.08,0,0,1-.62.89l-.62.66a3.93,3.93,0,0,1,1,.63A5.9,5.9,0,0,1,19,48.56a5.56,5.56,0,0,1,.28,1.82,6.1,6.1,0,0,1-.55,2.67A5.38,5.38,0,0,1,17.24,55a7,7,0,0,1-2.3,1.17,10.12,10.12,0,0,1-2.85.39H0V35.36Zm0,8.86a3.15,3.15,0,0,0,2.37-.83,3.2,3.2,0,0,0,.79-2.27,2.59,2.59,0,0,0-.78-2,3.4,3.4,0,0,0-2.38-.72h-9v5.82Zm0,9.26a5.12,5.12,0,0,0,3.16-.79,2.73,2.73,0,0,0,1-2.31,4.06,4.06,0,0,0-.19-1.29,2.22,2.22,0,0,0-.69-1,3.58,3.58,0,0,0-1.3-.62,7.5,7.5,0,0,0-2-.23h-9v6.21Z"/><path class="cls-1" d="M42.72,35.36v3H28.43V44h7.21V47H28.43v6.46H43.26v3.05H25.39V35.36Z"/><path class="cls-1" d="M68.56,56.53H65.11l-3-7H52.63l-3.13,7H46.17l9.57-21.17h3.39ZM57.38,39.14l-3.33,7.37h6.66Z"/><path class="cls-1" d="M93.1,52.75a20.67,20.67,0,0,1-1.65,1.58,10,10,0,0,1-2.12,1.36,12.81,12.81,0,0,1-2.88.94,18.77,18.77,0,0,1-3.94.36,11.64,11.64,0,0,1-7.74-3,10.86,10.86,0,0,1-2.48-3.43,10.45,10.45,0,0,1-.93-4.44,11.48,11.48,0,0,1,.84-4.39,10.88,10.88,0,0,1,5.88-5.94,11,11,0,0,1,4.37-.88,13.11,13.11,0,0,1,3.91.54,16.27,16.27,0,0,1,3,1.26,12.26,12.26,0,0,1,2.13,1.44q.84.72,1.23,1.08l-2.29,2c-.24-.19-.59-.46-1-.83a9.21,9.21,0,0,0-1.68-1.07,12.89,12.89,0,0,0-2.32-.92,10.32,10.32,0,0,0-3-.4,8.31,8.31,0,0,0-2.94.54A8,8,0,0,0,77,40.06a7.8,7.8,0,0,0-1.85,2.55,8.29,8.29,0,0,0-.7,3.5A7.37,7.37,0,0,0,75,48.92a7.73,7.73,0,0,0,1.68,2.52,8.51,8.51,0,0,0,2.77,1.8,9.83,9.83,0,0,0,3.82.69,10.51,10.51,0,0,0,3-.38,11.32,11.32,0,0,0,2.26-.9,8.31,8.31,0,0,0,1.59-1.1,9.8,9.8,0,0,0,1-1Z"/><path class="cls-1" d="M99.31,35.36h3v8.55h12.42V35.36h3V56.53h-3V47H102.36v9.57h-3Z"/><path class="cls-1" d="M148.9,35.36a7.46,7.46,0,0,1,2.3.35,5.51,5.51,0,0,1,2,1.09,5.16,5.16,0,0,1,1.37,1.83,6.12,6.12,0,0,1,.51,2.6,7.27,7.27,0,0,1-.51,2.88A5.4,5.4,0,0,1,153.19,46a5.29,5.29,0,0,1-2,1.09,7.8,7.8,0,0,1-2.32.34h-9.18v9.06h-3.05V35.36Zm-9.18,3v6h9.18a3.78,3.78,0,0,0,1.69-.31,2.43,2.43,0,0,0,.93-.78,2.52,2.52,0,0,0,.4-1,7.92,7.92,0,0,0,.08-1.06,2.86,2.86,0,0,0-.78-2,3.06,3.06,0,0,0-2.32-.82Z"/><path class="cls-1" d="M179.73,56.53h-3.45l-3-7H163.8l-3.13,7h-3.33l9.57-21.17h3.39ZM168.55,39.14l-3.33,7.37h6.66Z"/><path class="cls-1" d="M184.56,35.36h3.05V53.48h12.85v3.05h-15.9Z"/><path class="cls-1" d="M223.89,56.53h-3.44l-3-7H208l-3.14,7H201.5l9.57-21.17h3.39ZM212.71,39.14l-3.33,7.37H216Z"/><path class="cls-1" d="M248.43,52.75a20.67,20.67,0,0,1-1.65,1.58,9.78,9.78,0,0,1-2.12,1.36,12.81,12.81,0,0,1-2.88.94,18.7,18.7,0,0,1-3.94.36,11.69,11.69,0,0,1-7.74-3,10.86,10.86,0,0,1-2.48-3.43,10.45,10.45,0,0,1-.93-4.44,11.48,11.48,0,0,1,.84-4.39,10.88,10.88,0,0,1,5.88-5.94,11,11,0,0,1,4.38-.88,13.15,13.15,0,0,1,3.91.54,16.16,16.16,0,0,1,3,1.26,12.26,12.26,0,0,1,2.13,1.44q.84.72,1.23,1.08l-2.29,2c-.24-.19-.59-.46-1-.83a9.21,9.21,0,0,0-1.68-1.07,12.89,12.89,0,0,0-2.32-.92,10.27,10.27,0,0,0-2.95-.4,8.3,8.3,0,0,0-2.93.54,8.1,8.1,0,0,0-2.59,1.57,7.8,7.8,0,0,0-1.85,2.55,8.29,8.29,0,0,0-.7,3.5,7.57,7.57,0,0,0,.56,2.81A7.73,7.73,0,0,0,232,51.44a8.62,8.62,0,0,0,2.77,1.8,9.88,9.88,0,0,0,3.83.69,10.44,10.44,0,0,0,3-.38,11.08,11.08,0,0,0,2.26-.9,8.31,8.31,0,0,0,1.59-1.1,9.8,9.8,0,0,0,1-1Z"/><path class="cls-1" d="M271.36,35.36v3H257.07V44h7.2V47h-7.2v6.46H271.9v3.05H254V35.36Z"/><path class="cls-1" d="M111.45,78.18a9.46,9.46,0,0,1-.73.68,4.54,4.54,0,0,1-.94.58,5.67,5.67,0,0,1-1.28.41,8.67,8.67,0,0,1-1.74.15,5.21,5.21,0,0,1-3.42-1.29,4.51,4.51,0,0,1-1.1-1.48,4.24,4.24,0,0,1-.41-1.9,4.79,4.79,0,0,1,.37-1.89,4.82,4.82,0,0,1,2.6-2.55,5,5,0,0,1,1.94-.38,6.19,6.19,0,0,1,1.73.23,8.11,8.11,0,0,1,1.34.54,6.12,6.12,0,0,1,.94.62l.55.47-1,.84-.47-.36a4.12,4.12,0,0,0-.74-.46,7,7,0,0,0-1-.4,4.83,4.83,0,0,0-1.31-.17,3.87,3.87,0,0,0-1.3.23,3.46,3.46,0,0,0-1.14.68,3.27,3.27,0,0,0-.82,1.1,3.38,3.38,0,0,0-.31,1.5,3.12,3.12,0,0,0,1,2.29,3.68,3.68,0,0,0,1.22.77,4.49,4.49,0,0,0,1.7.3,4.77,4.77,0,0,0,1.32-.16,5.22,5.22,0,0,0,1-.39,3.66,3.66,0,0,0,.71-.48,3.46,3.46,0,0,0,.43-.43Z"/><path class="cls-1" d="M122.38,79.81h-1.52l-1.34-3h-4.19l-1.38,3h-1.48l4.24-9.1h1.5Zm-4.95-7.48L116,75.5h3Z"/><path class="cls-1" d="M125.74,70.71l5.58,6.91h0V70.71h1.35v9.1h-1.35l-5.57-6.92h0v6.92h-1.35v-9.1Z"/><path class="cls-1" d="M145.09,78.18a9.46,9.46,0,0,1-.73.68,4.54,4.54,0,0,1-.94.58,5.67,5.67,0,0,1-1.28.41,8.67,8.67,0,0,1-1.74.15A5.21,5.21,0,0,1,137,78.71a4.51,4.51,0,0,1-1.1-1.48,4.24,4.24,0,0,1-.42-1.9,4.8,4.8,0,0,1,.38-1.89,4.82,4.82,0,0,1,2.6-2.55,5,5,0,0,1,1.94-.38,6.19,6.19,0,0,1,1.73.23,8.11,8.11,0,0,1,1.34.54,6.12,6.12,0,0,1,.94.62l.55.47-1,.84-.46-.36a4.12,4.12,0,0,0-.74-.46,6.72,6.72,0,0,0-1-.4,4.71,4.71,0,0,0-1.3-.17,3.87,3.87,0,0,0-1.3.23,3.46,3.46,0,0,0-1.14.68,3.27,3.27,0,0,0-.82,1.1,3.38,3.38,0,0,0-.31,1.5,3.12,3.12,0,0,0,1,2.29,3.68,3.68,0,0,0,1.22.77,4.49,4.49,0,0,0,1.7.3,4.77,4.77,0,0,0,1.32-.16,5.22,5.22,0,0,0,1-.39,3.66,3.66,0,0,0,.71-.48,3.46,3.46,0,0,0,.43-.43Z"/><path class="cls-1" d="M156,76.37a5.68,5.68,0,0,1-.15,1.29,2.84,2.84,0,0,1-.61,1.18,3.35,3.35,0,0,1-1.25.84,5.87,5.87,0,0,1-2.1.32,5.81,5.81,0,0,1-2.09-.32,3.31,3.31,0,0,1-1.26-.84,2.71,2.71,0,0,1-.6-1.18,5.18,5.18,0,0,1-.16-1.29V70.71h1.35v5.66a3.12,3.12,0,0,0,.13.93,1.65,1.65,0,0,0,.43.73,2,2,0,0,0,.85.48,4.24,4.24,0,0,0,1.35.18,4.35,4.35,0,0,0,1.36-.18,2,2,0,0,0,.84-.48,1.67,1.67,0,0,0,.44-.73,3.48,3.48,0,0,0,.12-.93V70.71H156Z"/><path class="cls-1" d="M161,70.71l5.57,6.91h0V70.71H168v9.1h-1.34L161,72.89h0v6.92h-1.35v-9.1Z"/></g></g></svg>